<?xml version="1.0" standalone="no"?>
<!DOCTYPE svg PUBLIC "-//W3C//DTD SVG 20010904//EN"
 "http://www.w3.org/TR/2001/REC-SVG-20010904/DTD/svg10.dtd">
<svg version="1.0" xmlns="http://www.w3.org/2000/svg"
 width="1024.000000pt" height="1024.000000pt" viewBox="0 0 1024.000000 1024.000000"
 preserveAspectRatio="xMidYMid meet">
<metadata>
Created by potrace 1.11, written by Peter Selinger 2001-2013
</metadata>
<g transform="translate(0.000000,1024.000000) scale(0.100000,-0.100000)"
fill="#000000" stroke="none">
<path d="M26 9493 c14 -27 34 -59 44 -73 9 -14 20 -33 23 -42 4 -10 22 -43 42
-73 19 -31 35 -57 35 -60 0 -4 45 -81 79 -135 8 -14 16 -27 16 -30 0 -3 8 -16
17 -30 9 -14 51 -86 93 -160 42 -74 81 -139 85 -145 4 -5 20 -32 35 -60 16
-27 35 -61 42 -75 8 -14 26 -46 41 -71 15 -25 69 -119 121 -210 52 -90 97
-166 100 -169 3 -3 15 -23 26 -45 10 -22 24 -47 31 -55 6 -8 22 -35 35 -60 13
-25 29 -52 35 -60 6 -8 29 -46 50 -85 21 -38 50 -90 66 -114 15 -25 28 -51 28
-58 0 -7 4 -13 8 -13 5 0 15 -12 23 -27 7 -16 27 -50 43 -78 35 -60 59 -103
87 -152 12 -21 43 -75 70 -121 27 -45 49 -87 49 -92 0 -6 3 -10 8 -10 4 0 16
-18 26 -40 11 -22 23 -40 28 -40 4 0 8 -9 8 -19 0 -11 4 -22 9 -26 6 -3 29
-40 53 -82 24 -42 55 -97 70 -122 14 -25 38 -68 53 -96 15 -27 33 -57 41 -66
8 -8 14 -18 14 -21 0 -3 30 -57 66 -119 96 -164 105 -180 128 -221 12 -20 73
-126 136 -234 63 -108 130 -225 149 -258 18 -34 42 -73 52 -88 11 -14 19 -28
19 -30 0 -5 216 -379 227 -393 4 -6 18 -28 30 -50 42 -79 65 -120 73 -130 8
-10 27 -44 78 -135 13 -25 32 -53 41 -64 9 -10 14 -19 12 -20 -3 0 2 -12 11
-26 37 -59 128 -222 128 -230 0 -5 4 -10 8 -12 4 -1 53 -82 109 -178 55 -96
123 -215 152 -263 28 -49 51 -93 51 -98 0 -5 5 -9 10 -9 6 0 10 -4 10 -10 0
-5 27 -55 60 -111 33 -55 60 -103 60 -105 0 -2 12 -23 27 -47 15 -23 33 -51
39 -62 34 -61 65 -115 145 -252 49 -84 89 -155 89 -158 0 -4 13 -26 30 -50 16
-24 30 -48 30 -54 0 -6 5 -11 10 -11 6 0 10 -5 10 -10 0 -6 11 -28 25 -50 14
-22 22 -40 19 -40 -4 0 1 -9 10 -19 19 -21 42 -61 73 -123 10 -21 21 -38 25
-38 5 0 8 -7 8 -15 0 -8 5 -15 10 -15 6 0 10 -5 10 -10 0 -6 32 -65 71 -133
80 -136 91 -156 139 -242 19 -33 36 -62 39 -65 4 -3 11 -14 17 -25 6 -11 23
-42 39 -70 16 -27 34 -61 42 -75 8 -14 25 -43 39 -65 14 -22 27 -48 31 -57 3
-10 9 -18 13 -18 5 0 12 -10 15 -22 4 -11 32 -61 61 -111 30 -49 54 -91 54
-93 0 -2 24 -43 53 -92 30 -49 57 -95 60 -103 4 -8 17 -30 28 -49 12 -19 64
-109 117 -200 102 -177 171 -295 187 -322 5 -9 23 -41 39 -70 15 -29 34 -60
42 -69 8 -8 14 -19 14 -22 0 -4 20 -41 45 -82 25 -41 48 -82 52 -92 4 -10 20
-37 35 -59 15 -23 28 -47 28 -53 0 -6 5 -11 10 -11 6 0 10 -8 10 -17 0 -15 4
-13 23 7 13 14 24 30 24 35 0 6 23 47 52 93 28 46 51 85 51 87 0 2 27 49 60
105 33 56 60 103 60 106 0 2 20 35 45 74 25 39 45 73 45 76 0 3 31 58 69 122
38 64 79 135 91 157 31 55 154 267 196 337 19 31 34 61 34 66 0 6 6 17 13 24
15 15 79 122 119 198 7 14 15 27 19 30 3 3 12 20 20 38 8 17 17 32 20 32 4 0
9 8 12 18 3 9 20 40 36 67 17 28 34 57 38 65 3 8 9 17 12 20 4 3 12 16 19 30
6 14 20 39 30 55 9 17 57 99 106 183 48 83 92 155 97 158 5 3 7 10 4 15 -4 5
-1 9 4 9 6 0 11 5 11 11 0 9 63 121 100 179 6 8 13 22 17 30 4 8 9 17 12 20 3
3 19 30 35 60 16 30 32 57 35 60 3 3 17 25 30 50 13 25 43 77 66 115 23 39 45
77 48 85 4 8 18 33 32 55 14 22 44 74 67 115 24 41 47 83 53 92 44 74 65 112
65 119 0 5 4 9 8 9 5 0 14 16 22 35 8 19 17 35 22 35 4 0 8 4 8 9 0 9 49 97
89 161 8 14 14 28 13 32 -1 5 2 8 8 8 5 0 10 7 10 15 0 8 3 15 8 15 4 0 16 20
27 45 11 25 22 45 25 45 3 0 16 21 30 48 13 26 39 70 57 99 18 29 33 54 33 57
0 3 16 30 35 60 19 30 35 57 35 60 0 9 63 110 73 117 5 3 9 10 8 15 0 5 30 61
67 124 37 63 65 116 64 118 -2 3 0 8 5 11 8 5 118 190 183 306 53 95 75 130
82 133 4 2 8 10 8 19 0 8 12 30 26 49 15 19 22 34 18 34 -5 0 -4 4 1 8 11 7
95 146 95 157 0 3 8 18 19 33 24 35 121 201 121 207 0 4 43 77 78 130 7 11 19
34 27 50 9 17 20 37 25 45 17 26 230 393 230 396 0 1 24 42 54 91 29 48 63
106 75 128 12 22 32 57 44 77 12 21 35 61 51 90 16 29 36 64 46 78 10 14 21
35 24 48 4 12 12 22 17 22 5 0 9 4 9 10 0 5 18 39 40 75 22 36 40 68 40 70 0
3 11 24 26 46 14 22 33 55 43 72 66 118 145 253 150 257 3 3 19 30 35 60 16
30 35 62 42 70 7 8 13 18 13 23 1 12 54 102 63 105 4 2 8 12 8 22 0 10 4 20 8
22 9 3 265 445 270 465 2 7 8 13 13 13 5 0 9 7 9 15 0 8 5 15 11 15 5 0 8 4 4
9 -3 5 0 15 7 23 7 7 20 27 28 43 8 17 18 32 21 35 4 3 17 25 29 50 12 25 26
47 29 50 4 3 20 30 35 60 16 30 33 62 40 70 6 8 16 24 22 35 45 83 147 259
164 285 6 8 13 23 16 33 4 9 9 17 13 17 3 0 13 15 20 33 8 17 30 55 48 84 18
29 33 57 33 63 0 5 5 10 12 10 6 0 9 3 5 6 -3 3 9 29 27 57 18 29 38 62 45 75
l12 22 -1974 0 -1974 0 -34 -65 c-18 -36 -37 -65 -41 -65 -5 0 -8 -4 -8 -8 0
-5 -24 -50 -52 -101 -29 -50 -60 -104 -68 -119 -44 -80 -95 -168 -100 -172 -3
-3 -11 -16 -17 -30 -7 -14 -26 -47 -43 -75 -16 -27 -33 -57 -37 -65 -3 -8 -15
-26 -25 -39 -10 -13 -15 -27 -12 -32 3 -5 1 -9 -5 -9 -5 0 -13 -10 -17 -22 -4
-13 -10 -25 -13 -28 -11 -9 -141 -239 -141 -250 0 -5 -4 -10 -8 -10 -4 0 -18
-19 -30 -42 -22 -43 -35 -66 -107 -192 -22 -37 -52 -89 -66 -115 -15 -25 -36
-62 -48 -81 -11 -19 -26 -47 -32 -62 -6 -16 -14 -28 -18 -28 -4 0 -13 -16 -21
-35 -8 -19 -17 -35 -21 -35 -4 0 -9 -8 -13 -17 -3 -10 -20 -43 -38 -74 -46
-78 -131 -227 -143 -250 -5 -10 -12 -19 -15 -19 -6 0 -103 169 -108 188 -2 6
-8 12 -13 12 -5 0 -9 5 -9 10 0 6 -17 39 -38 73 -71 115 -102 168 -102 173 0
3 -13 25 -30 49 -17 24 -30 48 -30 54 0 5 -6 16 -12 23 -7 8 -20 27 -29 43
-31 57 -138 240 -146 251 -9 11 -22 34 -61 103 -14 25 -49 85 -78 134 -30 49
-54 92 -54 94 0 2 -13 24 -30 48 -16 24 -30 46 -30 48 0 3 -18 35 -40 71 -22
36 -40 68 -40 72 0 3 -14 25 -30 49 -17 24 -30 48 -30 54 0 6 -3 11 -8 11 -4
0 -14 14 -21 32 -8 18 -27 50 -41 73 -15 22 -38 60 -51 85 -13 25 -26 47 -29
50 -3 3 -11 16 -18 29 -33 57 -52 90 -86 149 l-37 62 -1960 0 -1960 0 27 -47z"/>
</g>
</svg>
